<mxfile host="app.diagrams.net" modified="2022-10-26T16:36:28.492Z" agent="5.0 (Windows NT 10.0; Win64; x64) AppleWebKit/537.36 (KHTML, like Gecko) Chrome/106.0.0.0 Safari/537.36 Edg/106.0.1370.52" etag="vT7OQdXxRO3Z4VHHQZYY" version="20.5.1" type="github">
  <diagram id="C5RBs43oDa-KdzZeNtuy" name="Page-1">
    <mxGraphModel dx="1624" dy="936" grid="1" gridSize="10" guides="1" tooltips="1" connect="1" arrows="1" fold="1" page="1" pageScale="1" pageWidth="2339" pageHeight="3300" math="0" shadow="0">
      <root>
        <mxCell id="WIyWlLk6GJQsqaUBKTNV-0" />
        <mxCell id="WIyWlLk6GJQsqaUBKTNV-1" parent="WIyWlLk6GJQsqaUBKTNV-0" />
        <mxCell id="TKF7dKA5Q2aCV54tY_aQ-0" value="" style="group;movable=0;resizable=0;rotatable=0;deletable=0;editable=0;connectable=0;" parent="WIyWlLk6GJQsqaUBKTNV-1" vertex="1" connectable="0">
          <mxGeometry x="30" y="20" width="2290.0060000000003" height="3250.028" as="geometry" />
        </mxCell>
        <mxCell id="TKF7dKA5Q2aCV54tY_aQ-1" value="" style="rounded=0;whiteSpace=wrap;html=1;fillColor=none;" parent="TKF7dKA5Q2aCV54tY_aQ-0" vertex="1">
          <mxGeometry width="2290" height="3250" as="geometry" />
        </mxCell>
        <mxCell id="TKF7dKA5Q2aCV54tY_aQ-2" value="" style="rounded=0;whiteSpace=wrap;html=1;fillColor=none;movable=0;resizable=0;rotatable=0;deletable=0;editable=0;connectable=0;" parent="TKF7dKA5Q2aCV54tY_aQ-0" vertex="1">
          <mxGeometry x="1561.1100000000001" y="3072.86" width="728.35" height="177.165" as="geometry" />
        </mxCell>
        <mxCell id="TKF7dKA5Q2aCV54tY_aQ-3" value="" style="rounded=0;whiteSpace=wrap;html=1;fillColor=none;movable=0;resizable=0;rotatable=0;deletable=0;editable=0;connectable=0;" parent="TKF7dKA5Q2aCV54tY_aQ-0" vertex="1">
          <mxGeometry x="1562.0099999999998" y="3111.16" width="27.558999999999997" height="19.685" as="geometry" />
        </mxCell>
        <mxCell id="TKF7dKA5Q2aCV54tY_aQ-4" value="" style="rounded=0;whiteSpace=wrap;html=1;fillColor=none;movable=0;resizable=0;rotatable=0;deletable=0;editable=0;connectable=0;" parent="TKF7dKA5Q2aCV54tY_aQ-0" vertex="1">
          <mxGeometry x="1562.0000000000002" y="3131.6699999999996" width="27.558999999999997" height="19.685" as="geometry" />
        </mxCell>
        <mxCell id="TKF7dKA5Q2aCV54tY_aQ-5" value="" style="rounded=0;whiteSpace=wrap;html=1;fillColor=none;movable=0;resizable=0;rotatable=0;deletable=0;editable=0;connectable=0;" parent="TKF7dKA5Q2aCV54tY_aQ-0" vertex="1">
          <mxGeometry x="1562.01" y="3091.47" width="27.558999999999997" height="19.685" as="geometry" />
        </mxCell>
        <mxCell id="TKF7dKA5Q2aCV54tY_aQ-6" value="" style="rounded=0;whiteSpace=wrap;html=1;fillColor=none;movable=0;resizable=0;rotatable=0;deletable=0;editable=0;connectable=0;" parent="TKF7dKA5Q2aCV54tY_aQ-0" vertex="1">
          <mxGeometry x="1589.5699999999997" y="3111.16" width="39.37" height="19.685" as="geometry" />
        </mxCell>
        <mxCell id="TKF7dKA5Q2aCV54tY_aQ-7" value="" style="rounded=0;whiteSpace=wrap;html=1;fillColor=none;movable=0;resizable=0;rotatable=0;deletable=0;editable=0;connectable=0;" parent="TKF7dKA5Q2aCV54tY_aQ-0" vertex="1">
          <mxGeometry x="1589.5600000000002" y="3131.6699999999996" width="39.37" height="19.685" as="geometry" />
        </mxCell>
        <mxCell id="TKF7dKA5Q2aCV54tY_aQ-8" value="" style="rounded=0;whiteSpace=wrap;html=1;fillColor=none;movable=0;resizable=0;rotatable=0;deletable=0;editable=0;connectable=0;" parent="TKF7dKA5Q2aCV54tY_aQ-0" vertex="1">
          <mxGeometry x="1589.57" y="3091.47" width="39.37" height="19.685" as="geometry" />
        </mxCell>
        <mxCell id="TKF7dKA5Q2aCV54tY_aQ-9" value="" style="rounded=0;whiteSpace=wrap;html=1;fillColor=none;movable=0;resizable=0;rotatable=0;deletable=0;editable=0;connectable=0;" parent="TKF7dKA5Q2aCV54tY_aQ-0" vertex="1">
          <mxGeometry x="1628.9399999999998" y="3111.16" width="90.551" height="19.685" as="geometry" />
        </mxCell>
        <mxCell id="TKF7dKA5Q2aCV54tY_aQ-10" value="" style="rounded=0;whiteSpace=wrap;html=1;fillColor=none;movable=0;resizable=0;rotatable=0;deletable=0;editable=0;connectable=0;" parent="TKF7dKA5Q2aCV54tY_aQ-0" vertex="1">
          <mxGeometry x="1629.2800000000002" y="3110.9399999999996" width="90.551" height="19.685" as="geometry" />
        </mxCell>
        <mxCell id="TKF7dKA5Q2aCV54tY_aQ-11" value="" style="rounded=0;whiteSpace=wrap;html=1;fillColor=none;movable=0;resizable=0;rotatable=0;deletable=0;editable=0;connectable=0;" parent="TKF7dKA5Q2aCV54tY_aQ-0" vertex="1">
          <mxGeometry x="1628.94" y="3091.47" width="90.551" height="19.685" as="geometry" />
        </mxCell>
        <mxCell id="TKF7dKA5Q2aCV54tY_aQ-12" value="" style="rounded=0;whiteSpace=wrap;html=1;fillColor=none;movable=0;resizable=0;rotatable=0;deletable=0;editable=0;connectable=0;" parent="TKF7dKA5Q2aCV54tY_aQ-0" vertex="1">
          <mxGeometry x="1719.4899999999998" y="3111.16" width="59.055" height="19.685" as="geometry" />
        </mxCell>
        <mxCell id="TKF7dKA5Q2aCV54tY_aQ-13" value="" style="rounded=0;whiteSpace=wrap;html=1;fillColor=none;movable=0;resizable=0;rotatable=0;deletable=0;editable=0;connectable=0;" parent="TKF7dKA5Q2aCV54tY_aQ-0" vertex="1">
          <mxGeometry x="1719.14" y="3131.67" width="59.055" height="19.685" as="geometry" />
        </mxCell>
        <mxCell id="TKF7dKA5Q2aCV54tY_aQ-14" value="" style="rounded=0;whiteSpace=wrap;html=1;fillColor=none;movable=0;resizable=0;rotatable=0;deletable=0;editable=0;connectable=0;" parent="TKF7dKA5Q2aCV54tY_aQ-0" vertex="1">
          <mxGeometry x="1719.49" y="3091.47" width="59.055" height="19.685" as="geometry" />
        </mxCell>
        <mxCell id="TKF7dKA5Q2aCV54tY_aQ-15" value="" style="rounded=0;whiteSpace=wrap;html=1;fillColor=none;movable=0;resizable=0;rotatable=0;deletable=0;editable=0;connectable=0;" parent="TKF7dKA5Q2aCV54tY_aQ-0" vertex="1">
          <mxGeometry x="1778.2099999999998" y="3112" width="39.37" height="19.685" as="geometry" />
        </mxCell>
        <mxCell id="TKF7dKA5Q2aCV54tY_aQ-16" value="" style="rounded=0;whiteSpace=wrap;html=1;fillColor=none;movable=0;resizable=0;rotatable=0;deletable=0;editable=0;connectable=0;" parent="TKF7dKA5Q2aCV54tY_aQ-0" vertex="1">
          <mxGeometry x="1778.2" y="3131.67" width="39.37" height="19.685" as="geometry" />
        </mxCell>
        <mxCell id="TKF7dKA5Q2aCV54tY_aQ-17" value="" style="rounded=0;whiteSpace=wrap;html=1;fillColor=none;movable=0;resizable=0;rotatable=0;deletable=0;editable=0;connectable=0;" parent="TKF7dKA5Q2aCV54tY_aQ-0" vertex="1">
          <mxGeometry x="1778.19" y="3091.47" width="39.37" height="19.685" as="geometry" />
        </mxCell>
        <mxCell id="TKF7dKA5Q2aCV54tY_aQ-18" value="" style="rounded=0;whiteSpace=wrap;html=1;fillColor=none;movable=0;resizable=0;rotatable=0;deletable=0;editable=0;connectable=0;" parent="TKF7dKA5Q2aCV54tY_aQ-0" vertex="1">
          <mxGeometry x="1817.56" y="3072.86" width="472.43" height="59.055" as="geometry" />
        </mxCell>
        <mxCell id="TKF7dKA5Q2aCV54tY_aQ-19" value="Изм." style="text;html=1;strokeColor=none;fillColor=none;align=center;verticalAlign=middle;whiteSpace=wrap;rounded=0;fontFamily=Times New Roman;fontSize=10;movable=0;resizable=0;rotatable=0;deletable=0;editable=0;connectable=0;" parent="TKF7dKA5Q2aCV54tY_aQ-0" vertex="1">
          <mxGeometry x="1561.11" y="3131.66" width="27.558999999999997" height="19.685" as="geometry" />
        </mxCell>
        <mxCell id="TKF7dKA5Q2aCV54tY_aQ-20" value="Лист" style="text;html=1;strokeColor=none;fillColor=none;align=center;verticalAlign=middle;whiteSpace=wrap;rounded=0;fontFamily=Times New Roman;fontSize=10;movable=0;resizable=0;rotatable=0;deletable=0;editable=0;connectable=0;" parent="TKF7dKA5Q2aCV54tY_aQ-0" vertex="1">
          <mxGeometry x="1589.9099999999999" y="3130.85" width="39.37" height="19.685" as="geometry" />
        </mxCell>
        <mxCell id="TKF7dKA5Q2aCV54tY_aQ-21" value="№ докум." style="text;html=1;strokeColor=none;fillColor=none;align=center;verticalAlign=middle;whiteSpace=wrap;rounded=0;fontFamily=Times New Roman;fontSize=10;movable=0;resizable=0;rotatable=0;deletable=0;editable=0;connectable=0;" parent="TKF7dKA5Q2aCV54tY_aQ-0" vertex="1">
          <mxGeometry x="1629.2799999999997" y="3131.66" width="90.551" height="19.68" as="geometry" />
        </mxCell>
        <mxCell id="TKF7dKA5Q2aCV54tY_aQ-22" value="Подп" style="text;html=1;strokeColor=none;fillColor=none;align=center;verticalAlign=middle;whiteSpace=wrap;rounded=0;fontFamily=Times New Roman;fontSize=10;movable=0;resizable=0;rotatable=0;deletable=0;editable=0;connectable=0;" parent="TKF7dKA5Q2aCV54tY_aQ-0" vertex="1">
          <mxGeometry x="1718.5900000000001" y="3131.93" width="59.055" height="19.68" as="geometry" />
        </mxCell>
        <mxCell id="TKF7dKA5Q2aCV54tY_aQ-23" value="Дата" style="text;html=1;strokeColor=none;fillColor=none;align=center;verticalAlign=middle;whiteSpace=wrap;rounded=0;fontFamily=Times New Roman;fontSize=10;movable=0;resizable=0;rotatable=0;deletable=0;editable=0;connectable=0;" parent="TKF7dKA5Q2aCV54tY_aQ-0" vertex="1">
          <mxGeometry x="1778.1899999999998" y="3131.93" width="39.37" height="19.685" as="geometry" />
        </mxCell>
        <mxCell id="TKF7dKA5Q2aCV54tY_aQ-24" value="" style="rounded=0;whiteSpace=wrap;html=1;fillColor=none;movable=0;resizable=0;rotatable=0;deletable=0;editable=0;connectable=0;" parent="TKF7dKA5Q2aCV54tY_aQ-0" vertex="1">
          <mxGeometry x="1562" y="3151.6" width="66.929" height="19.68" as="geometry" />
        </mxCell>
        <mxCell id="TKF7dKA5Q2aCV54tY_aQ-25" value="" style="rounded=0;whiteSpace=wrap;html=1;fillColor=none;movable=0;resizable=0;rotatable=0;deletable=0;editable=0;connectable=0;" parent="TKF7dKA5Q2aCV54tY_aQ-0" vertex="1">
          <mxGeometry x="1562" y="3171.28" width="66.929" height="19.68" as="geometry" />
        </mxCell>
        <mxCell id="TKF7dKA5Q2aCV54tY_aQ-26" value="" style="rounded=0;whiteSpace=wrap;html=1;fillColor=none;movable=0;resizable=0;rotatable=0;deletable=0;editable=0;connectable=0;" parent="TKF7dKA5Q2aCV54tY_aQ-0" vertex="1">
          <mxGeometry x="1562" y="3190.96" width="66.929" height="19.68" as="geometry" />
        </mxCell>
        <mxCell id="TKF7dKA5Q2aCV54tY_aQ-27" value="" style="rounded=0;whiteSpace=wrap;html=1;fillColor=none;movable=0;resizable=0;rotatable=0;deletable=0;editable=0;connectable=0;" parent="TKF7dKA5Q2aCV54tY_aQ-0" vertex="1">
          <mxGeometry x="1562" y="3210.64" width="66.929" height="19.68" as="geometry" />
        </mxCell>
        <mxCell id="TKF7dKA5Q2aCV54tY_aQ-28" value="" style="rounded=0;whiteSpace=wrap;html=1;fillColor=none;movable=0;resizable=0;rotatable=0;deletable=0;editable=0;connectable=0;" parent="TKF7dKA5Q2aCV54tY_aQ-0" vertex="1">
          <mxGeometry x="1562" y="3230.32" width="66.929" height="19.68" as="geometry" />
        </mxCell>
        <mxCell id="TKF7dKA5Q2aCV54tY_aQ-29" value="" style="rounded=0;whiteSpace=wrap;html=1;fillColor=none;movable=0;resizable=0;rotatable=0;deletable=0;editable=0;connectable=0;" parent="TKF7dKA5Q2aCV54tY_aQ-0" vertex="1">
          <mxGeometry x="1628.6" y="3131.6699999999996" width="90.551" height="19.68" as="geometry" />
        </mxCell>
        <mxCell id="TKF7dKA5Q2aCV54tY_aQ-30" value="" style="rounded=0;whiteSpace=wrap;html=1;fillColor=none;movable=0;resizable=0;rotatable=0;deletable=0;editable=0;connectable=0;" parent="TKF7dKA5Q2aCV54tY_aQ-0" vertex="1">
          <mxGeometry x="1628.59" y="3190.96" width="90.551" height="19.68" as="geometry" />
        </mxCell>
        <mxCell id="TKF7dKA5Q2aCV54tY_aQ-31" value="" style="rounded=0;whiteSpace=wrap;html=1;fillColor=none;movable=0;resizable=0;rotatable=0;deletable=0;editable=0;connectable=0;" parent="TKF7dKA5Q2aCV54tY_aQ-0" vertex="1">
          <mxGeometry x="1628.59" y="3210.64" width="90.551" height="19.68" as="geometry" />
        </mxCell>
        <mxCell id="TKF7dKA5Q2aCV54tY_aQ-32" value="" style="rounded=0;whiteSpace=wrap;html=1;fillColor=none;movable=0;resizable=0;rotatable=0;deletable=0;editable=0;connectable=0;" parent="TKF7dKA5Q2aCV54tY_aQ-0" vertex="1">
          <mxGeometry x="1628.59" y="3230.32" width="90.551" height="19.68" as="geometry" />
        </mxCell>
        <mxCell id="TKF7dKA5Q2aCV54tY_aQ-33" value="" style="rounded=0;whiteSpace=wrap;html=1;fillColor=none;movable=0;resizable=0;rotatable=0;deletable=0;editable=0;connectable=0;" parent="TKF7dKA5Q2aCV54tY_aQ-0" vertex="1">
          <mxGeometry x="1719.1499999999999" y="3151.61" width="59.055" height="19.68" as="geometry" />
        </mxCell>
        <mxCell id="TKF7dKA5Q2aCV54tY_aQ-34" value="" style="rounded=0;whiteSpace=wrap;html=1;fillColor=none;movable=0;resizable=0;rotatable=0;deletable=0;editable=0;connectable=0;" parent="TKF7dKA5Q2aCV54tY_aQ-0" vertex="1">
          <mxGeometry x="1719.1399999999999" y="3171.2799999999997" width="59.055" height="19.68" as="geometry" />
        </mxCell>
        <mxCell id="TKF7dKA5Q2aCV54tY_aQ-35" value="" style="rounded=0;whiteSpace=wrap;html=1;fillColor=none;movable=0;resizable=0;rotatable=0;deletable=0;editable=0;connectable=0;" parent="TKF7dKA5Q2aCV54tY_aQ-0" vertex="1">
          <mxGeometry x="1719.1399999999999" y="3190.96" width="59.055" height="19.68" as="geometry" />
        </mxCell>
        <mxCell id="TKF7dKA5Q2aCV54tY_aQ-36" value="" style="rounded=0;whiteSpace=wrap;html=1;fillColor=none;movable=0;resizable=0;rotatable=0;deletable=0;editable=0;connectable=0;" parent="TKF7dKA5Q2aCV54tY_aQ-0" vertex="1">
          <mxGeometry x="1719.1399999999999" y="3210.64" width="59.055" height="19.68" as="geometry" />
        </mxCell>
        <mxCell id="TKF7dKA5Q2aCV54tY_aQ-37" value="" style="rounded=0;whiteSpace=wrap;html=1;fillColor=none;movable=0;resizable=0;rotatable=0;deletable=0;editable=0;connectable=0;" parent="TKF7dKA5Q2aCV54tY_aQ-0" vertex="1">
          <mxGeometry x="1719.1399999999999" y="3230.32" width="59.055" height="19.68" as="geometry" />
        </mxCell>
        <mxCell id="TKF7dKA5Q2aCV54tY_aQ-38" value="" style="rounded=0;whiteSpace=wrap;html=1;fillColor=none;movable=0;resizable=0;rotatable=0;deletable=0;editable=0;connectable=0;" parent="TKF7dKA5Q2aCV54tY_aQ-0" vertex="1">
          <mxGeometry x="1778.1899999999998" y="3151.35" width="39.37" height="19.68" as="geometry" />
        </mxCell>
        <mxCell id="TKF7dKA5Q2aCV54tY_aQ-39" value="" style="rounded=0;whiteSpace=wrap;html=1;fillColor=none;movable=0;resizable=0;rotatable=0;deletable=0;editable=0;connectable=0;" parent="TKF7dKA5Q2aCV54tY_aQ-0" vertex="1">
          <mxGeometry x="1778.2" y="3171.2799999999997" width="39.37" height="19.68" as="geometry" />
        </mxCell>
        <mxCell id="TKF7dKA5Q2aCV54tY_aQ-40" value="" style="rounded=0;whiteSpace=wrap;html=1;fillColor=none;movable=0;resizable=0;rotatable=0;deletable=0;editable=0;connectable=0;" parent="TKF7dKA5Q2aCV54tY_aQ-0" vertex="1">
          <mxGeometry x="1778.2" y="3190.96" width="39.37" height="19.68" as="geometry" />
        </mxCell>
        <mxCell id="TKF7dKA5Q2aCV54tY_aQ-41" value="" style="rounded=0;whiteSpace=wrap;html=1;fillColor=none;movable=0;resizable=0;rotatable=0;deletable=0;editable=0;connectable=0;" parent="TKF7dKA5Q2aCV54tY_aQ-0" vertex="1">
          <mxGeometry x="1778.2" y="3210.64" width="39.37" height="19.68" as="geometry" />
        </mxCell>
        <mxCell id="TKF7dKA5Q2aCV54tY_aQ-42" value="" style="rounded=0;whiteSpace=wrap;html=1;fillColor=none;movable=0;resizable=0;rotatable=0;deletable=0;editable=0;connectable=0;" parent="TKF7dKA5Q2aCV54tY_aQ-0" vertex="1">
          <mxGeometry x="1778.2" y="3230.32" width="39.37" height="19.68" as="geometry" />
        </mxCell>
        <mxCell id="TKF7dKA5Q2aCV54tY_aQ-43" value="" style="rounded=0;whiteSpace=wrap;html=1;fontFamily=Times New Roman;fontSize=10;fillColor=none;movable=0;resizable=0;rotatable=0;deletable=0;editable=0;connectable=0;" parent="TKF7dKA5Q2aCV54tY_aQ-0" vertex="1">
          <mxGeometry x="2218.59" y="3131.68" width="70.866" height="19.685" as="geometry" />
        </mxCell>
        <mxCell id="TKF7dKA5Q2aCV54tY_aQ-44" value="" style="rounded=0;whiteSpace=wrap;html=1;fontFamily=Times New Roman;fontSize=10;fillColor=none;movable=0;resizable=0;rotatable=0;deletable=0;editable=0;connectable=0;" parent="TKF7dKA5Q2aCV54tY_aQ-0" vertex="1">
          <mxGeometry x="2219.1400000000003" y="3150.53" width="70.866" height="39.37" as="geometry" />
        </mxCell>
        <mxCell id="TKF7dKA5Q2aCV54tY_aQ-45" value="" style="rounded=0;whiteSpace=wrap;html=1;fontFamily=Times New Roman;fontSize=10;fillColor=none;movable=0;resizable=0;rotatable=0;deletable=0;editable=0;connectable=0;" parent="TKF7dKA5Q2aCV54tY_aQ-0" vertex="1">
          <mxGeometry x="2152.23" y="3131.68" width="66.929" height="19.685" as="geometry" />
        </mxCell>
        <mxCell id="TKF7dKA5Q2aCV54tY_aQ-46" value="" style="rounded=0;whiteSpace=wrap;html=1;fontFamily=Times New Roman;fontSize=10;fillColor=none;movable=0;resizable=0;rotatable=0;deletable=0;editable=0;connectable=0;" parent="TKF7dKA5Q2aCV54tY_aQ-0" vertex="1">
          <mxGeometry x="2152.21" y="3150.53" width="66.929" height="39.37" as="geometry" />
        </mxCell>
        <mxCell id="TKF7dKA5Q2aCV54tY_aQ-47" value="" style="rounded=0;whiteSpace=wrap;html=1;fontFamily=Times New Roman;fontSize=10;fillColor=none;movable=0;resizable=0;rotatable=0;deletable=0;editable=0;connectable=0;" parent="TKF7dKA5Q2aCV54tY_aQ-0" vertex="1">
          <mxGeometry x="2093.1800000000003" y="3131.92" width="59.055" height="19.685" as="geometry" />
        </mxCell>
        <mxCell id="TKF7dKA5Q2aCV54tY_aQ-48" value="" style="rounded=0;whiteSpace=wrap;html=1;fontFamily=Times New Roman;fontSize=10;fillColor=none;movable=0;resizable=0;rotatable=0;deletable=0;editable=0;connectable=0;" parent="TKF7dKA5Q2aCV54tY_aQ-0" vertex="1">
          <mxGeometry x="2093.1600000000003" y="3150.5299999999997" width="59.05" height="39.37" as="geometry" />
        </mxCell>
        <mxCell id="TKF7dKA5Q2aCV54tY_aQ-49" value="" style="rounded=0;whiteSpace=wrap;html=1;fontFamily=Times New Roman;fontSize=10;fillColor=none;movable=0;resizable=0;rotatable=0;deletable=0;editable=0;connectable=0;" parent="TKF7dKA5Q2aCV54tY_aQ-0" vertex="1">
          <mxGeometry x="2093.14" y="3190.9700000000003" width="196.85" height="59.055" as="geometry" />
        </mxCell>
        <mxCell id="TKF7dKA5Q2aCV54tY_aQ-50" value="Разраб" style="text;html=1;strokeColor=none;fillColor=none;align=center;verticalAlign=middle;whiteSpace=wrap;rounded=0;fontFamily=Times New Roman;fontSize=10;movable=0;resizable=0;rotatable=0;deletable=0;editable=0;connectable=0;" parent="TKF7dKA5Q2aCV54tY_aQ-0" vertex="1">
          <mxGeometry x="1562.35" y="3149.47" width="66.929" height="19.68" as="geometry" />
        </mxCell>
        <mxCell id="TKF7dKA5Q2aCV54tY_aQ-51" value="Пров" style="text;html=1;strokeColor=none;fillColor=none;align=center;verticalAlign=middle;whiteSpace=wrap;rounded=0;fontFamily=Times New Roman;fontSize=10;movable=0;resizable=0;rotatable=0;deletable=0;editable=0;connectable=0;" parent="TKF7dKA5Q2aCV54tY_aQ-0" vertex="1">
          <mxGeometry x="1561.1069999999997" y="3170.217" width="66.929" height="19.68" as="geometry" />
        </mxCell>
        <mxCell id="TKF7dKA5Q2aCV54tY_aQ-52" value="Н. Контр." style="text;html=1;strokeColor=none;fillColor=none;align=center;verticalAlign=middle;whiteSpace=wrap;rounded=0;fontFamily=Times New Roman;fontSize=10;movable=0;resizable=0;rotatable=0;deletable=0;editable=0;connectable=0;" parent="TKF7dKA5Q2aCV54tY_aQ-0" vertex="1">
          <mxGeometry x="1562.001" y="3210.641" width="66.929" height="19.68" as="geometry" />
        </mxCell>
        <mxCell id="TKF7dKA5Q2aCV54tY_aQ-53" value="Утв." style="text;html=1;strokeColor=none;fillColor=none;align=center;verticalAlign=middle;whiteSpace=wrap;rounded=0;fontFamily=Times New Roman;fontSize=10;movable=0;resizable=0;rotatable=0;deletable=0;editable=0;connectable=0;" parent="TKF7dKA5Q2aCV54tY_aQ-0" vertex="1">
          <mxGeometry x="1562.008" y="3230.348" width="66.929" height="19.68" as="geometry" />
        </mxCell>
        <mxCell id="TKF7dKA5Q2aCV54tY_aQ-54" value="Лит." style="text;html=1;strokeColor=none;fillColor=none;align=center;verticalAlign=middle;whiteSpace=wrap;rounded=0;fontFamily=Times New Roman;fontSize=10;movable=0;resizable=0;rotatable=0;deletable=0;editable=0;connectable=0;" parent="TKF7dKA5Q2aCV54tY_aQ-0" vertex="1">
          <mxGeometry x="2093.1800000000003" y="3131.93" width="59.055" height="19.68" as="geometry" />
        </mxCell>
        <mxCell id="TKF7dKA5Q2aCV54tY_aQ-55" value="Лист" style="text;html=1;strokeColor=none;fillColor=none;align=center;verticalAlign=middle;whiteSpace=wrap;rounded=0;fontFamily=Times New Roman;fontSize=10;movable=0;resizable=0;rotatable=0;deletable=0;editable=0;connectable=0;" parent="TKF7dKA5Q2aCV54tY_aQ-0" vertex="1">
          <mxGeometry x="2152.2320000000004" y="3131.682" width="66.929" height="19.68" as="geometry" />
        </mxCell>
        <mxCell id="TKF7dKA5Q2aCV54tY_aQ-56" value="Листов" style="text;html=1;strokeColor=none;fillColor=none;align=center;verticalAlign=middle;whiteSpace=wrap;rounded=0;fontFamily=Times New Roman;fontSize=10;movable=0;resizable=0;rotatable=0;deletable=0;editable=0;connectable=0;" parent="TKF7dKA5Q2aCV54tY_aQ-0" vertex="1">
          <mxGeometry x="2219.16" y="3131.68" width="69.75" height="19.68" as="geometry" />
        </mxCell>
        <mxCell id="TKF7dKA5Q2aCV54tY_aQ-57" value="" style="rounded=0;whiteSpace=wrap;html=1;fillColor=none;movable=0;resizable=0;rotatable=0;deletable=0;editable=0;connectable=0;" parent="TKF7dKA5Q2aCV54tY_aQ-0" vertex="1">
          <mxGeometry x="1628.0400000000002" y="3151.6099999999997" width="90.551" height="19.685" as="geometry" />
        </mxCell>
        <mxCell id="TKF7dKA5Q2aCV54tY_aQ-58" value="Вершинин В. В." style="text;html=1;strokeColor=none;fillColor=none;align=center;verticalAlign=middle;whiteSpace=wrap;rounded=0;fontFamily=Times New Roman;fontSize=10;movable=0;resizable=0;rotatable=0;deletable=0;editable=0;connectable=0;" parent="TKF7dKA5Q2aCV54tY_aQ-0" vertex="1">
          <mxGeometry x="1629.28" y="3171.03" width="88.74" height="19.68" as="geometry" />
        </mxCell>
        <mxCell id="TKF7dKA5Q2aCV54tY_aQ-59" value="Фамилия И. О." style="text;html=1;strokeColor=none;fillColor=none;align=center;verticalAlign=middle;whiteSpace=wrap;rounded=0;fontFamily=Times New Roman;fontSize=10;movable=0;resizable=0;rotatable=0;deletable=0;editable=0;connectable=0;" parent="TKF7dKA5Q2aCV54tY_aQ-0" vertex="1">
          <mxGeometry x="1628.597" y="3151.337" width="88.74" height="19.68" as="geometry" />
        </mxCell>
        <mxCell id="TKF7dKA5Q2aCV54tY_aQ-60" value="&lt;span style=&quot;font-size: 14.0pt ; line-height: 150% ; font-family: &amp;quot;times new roman&amp;quot; , serif&quot;&gt;ВлГУ.09.03.02.&lt;/span&gt;" style="text;html=1;strokeColor=none;fillColor=none;align=center;verticalAlign=middle;whiteSpace=wrap;rounded=0;fontFamily=Times New Roman;fontSize=10;movable=0;resizable=0;rotatable=0;deletable=0;editable=0;connectable=0;" parent="TKF7dKA5Q2aCV54tY_aQ-0" vertex="1">
          <mxGeometry x="1817.56" y="3072.86" width="471.33" height="56.74" as="geometry" />
        </mxCell>
        <mxCell id="TKF7dKA5Q2aCV54tY_aQ-61" value="&lt;font style=&quot;font-size: 17px;&quot;&gt;ИСТ-120&lt;/font&gt;" style="text;html=1;strokeColor=none;fillColor=none;align=center;verticalAlign=middle;whiteSpace=wrap;rounded=0;fontFamily=Times New Roman;fontSize=10;movable=0;resizable=0;rotatable=0;deletable=0;editable=0;connectable=0;" parent="TKF7dKA5Q2aCV54tY_aQ-0" vertex="1">
          <mxGeometry x="2093.18" y="3189.9" width="195.71" height="57.81" as="geometry" />
        </mxCell>
        <mxCell id="TKF7dKA5Q2aCV54tY_aQ-62" value="&lt;font style=&quot;font-size: 17px&quot;&gt;Диаграмма последовательностей&lt;br&gt;&lt;/font&gt;" style="text;html=1;strokeColor=none;fillColor=none;align=center;verticalAlign=middle;whiteSpace=wrap;rounded=0;fontFamily=Times New Roman;fontSize=10;movable=0;resizable=0;rotatable=0;deletable=0;editable=0;connectable=0;" parent="TKF7dKA5Q2aCV54tY_aQ-0" vertex="1">
          <mxGeometry x="1817.58" y="3131.93" width="274.46" height="116.09" as="geometry" />
        </mxCell>
        <mxCell id="dHt9-2o09GKfG8fnE9cP-0" value="frame" style="shape=umlFrame;whiteSpace=wrap;html=1;movable=0;resizable=0;rotatable=0;deletable=0;editable=0;connectable=0;" parent="TKF7dKA5Q2aCV54tY_aQ-0" vertex="1">
          <mxGeometry x="90" y="60" width="970" height="560" as="geometry" />
        </mxCell>
        <mxCell id="dHt9-2o09GKfG8fnE9cP-4" value="User" style="shape=umlLifeline;perimeter=lifelinePerimeter;whiteSpace=wrap;html=1;container=1;collapsible=0;recursiveResize=0;outlineConnect=0;fillColor=#d5e8d4;strokeColor=#000000;" parent="TKF7dKA5Q2aCV54tY_aQ-0" vertex="1">
          <mxGeometry x="160" y="110" width="100" height="300" as="geometry" />
        </mxCell>
        <mxCell id="dHt9-2o09GKfG8fnE9cP-6" value="Bot" style="shape=umlLifeline;perimeter=lifelinePerimeter;whiteSpace=wrap;html=1;container=1;collapsible=0;recursiveResize=0;outlineConnect=0;" parent="TKF7dKA5Q2aCV54tY_aQ-0" vertex="1">
          <mxGeometry x="310" y="110" width="100" height="300" as="geometry" />
        </mxCell>
        <mxCell id="dHt9-2o09GKfG8fnE9cP-13" value="" style="html=1;points=[];perimeter=orthogonalPerimeter;" parent="dHt9-2o09GKfG8fnE9cP-6" vertex="1">
          <mxGeometry x="45" y="140" width="10" height="100" as="geometry" />
        </mxCell>
        <mxCell id="dHt9-2o09GKfG8fnE9cP-7" value="Map" style="shape=umlLifeline;perimeter=lifelinePerimeter;whiteSpace=wrap;html=1;container=1;collapsible=0;recursiveResize=0;outlineConnect=0;" parent="TKF7dKA5Q2aCV54tY_aQ-0" vertex="1">
          <mxGeometry x="490" y="110" width="100" height="300" as="geometry" />
        </mxCell>
        <mxCell id="dHt9-2o09GKfG8fnE9cP-8" value="" style="html=1;points=[];perimeter=orthogonalPerimeter;" parent="TKF7dKA5Q2aCV54tY_aQ-0" vertex="1">
          <mxGeometry x="205" y="200" width="10" height="180" as="geometry" />
        </mxCell>
        <mxCell id="dHt9-2o09GKfG8fnE9cP-9" value="" style="html=1;points=[];perimeter=orthogonalPerimeter;" parent="TKF7dKA5Q2aCV54tY_aQ-0" vertex="1">
          <mxGeometry x="535" y="200" width="10" height="90" as="geometry" />
        </mxCell>
        <mxCell id="dHt9-2o09GKfG8fnE9cP-10" value="" style="endArrow=open;endFill=1;endSize=12;html=1;rounded=0;exitX=0.989;exitY=0.123;exitDx=0;exitDy=0;exitPerimeter=0;entryX=-0.013;entryY=0.053;entryDx=0;entryDy=0;entryPerimeter=0;" parent="TKF7dKA5Q2aCV54tY_aQ-0" edge="1">
          <mxGeometry width="160" relative="1" as="geometry">
            <mxPoint x="214.89" y="214.84000000000003" as="sourcePoint" />
            <mxPoint x="534.8700000000001" y="215.06999999999994" as="targetPoint" />
          </mxGeometry>
        </mxCell>
        <mxCell id="dHt9-2o09GKfG8fnE9cP-12" value="Create bot" style="edgeLabel;html=1;align=center;verticalAlign=middle;resizable=0;points=[];" parent="dHt9-2o09GKfG8fnE9cP-10" vertex="1" connectable="0">
          <mxGeometry x="-0.2698" y="1" relative="1" as="geometry">
            <mxPoint x="28" y="-9" as="offset" />
          </mxGeometry>
        </mxCell>
        <mxCell id="dHt9-2o09GKfG8fnE9cP-18" value="" style="endArrow=open;endFill=1;endSize=12;html=1;rounded=0;exitX=1.04;exitY=0.498;exitDx=0;exitDy=0;exitPerimeter=0;entryX=0.011;entryY=0.397;entryDx=0;entryDy=0;entryPerimeter=0;" parent="TKF7dKA5Q2aCV54tY_aQ-0" source="dHt9-2o09GKfG8fnE9cP-8" target="dHt9-2o09GKfG8fnE9cP-13" edge="1">
          <mxGeometry width="160" relative="1" as="geometry">
            <mxPoint x="240" y="289.71" as="sourcePoint" />
            <mxPoint x="350" y="290" as="targetPoint" />
          </mxGeometry>
        </mxCell>
        <mxCell id="dHt9-2o09GKfG8fnE9cP-19" value="safe" style="edgeLabel;html=1;align=center;verticalAlign=middle;resizable=0;points=[];" parent="dHt9-2o09GKfG8fnE9cP-18" vertex="1" connectable="0">
          <mxGeometry x="-0.2381" relative="1" as="geometry">
            <mxPoint x="12" y="-10" as="offset" />
          </mxGeometry>
        </mxCell>
        <mxCell id="dHt9-2o09GKfG8fnE9cP-21" value="safe true" style="html=1;verticalAlign=bottom;endArrow=open;dashed=1;endSize=8;rounded=0;exitX=-0.031;exitY=0.806;exitDx=0;exitDy=0;exitPerimeter=0;entryX=0.961;entryY=0.723;entryDx=0;entryDy=0;entryPerimeter=0;" parent="TKF7dKA5Q2aCV54tY_aQ-0" source="dHt9-2o09GKfG8fnE9cP-13" target="dHt9-2o09GKfG8fnE9cP-8" edge="1">
          <mxGeometry relative="1" as="geometry">
            <mxPoint x="420" y="350" as="sourcePoint" />
            <mxPoint x="220" y="330" as="targetPoint" />
          </mxGeometry>
        </mxCell>
        <mxCell id="MY5WHlQzB3We_lp6xytC-0" value="Creating a bot" style="shape=umlFrame;whiteSpace=wrap;html=1;strokeColor=#000000;movable=0;resizable=0;rotatable=0;deletable=0;editable=0;connectable=0;width=90;height=30;" parent="TKF7dKA5Q2aCV54tY_aQ-0" vertex="1">
          <mxGeometry x="1220" y="70" width="1020" height="550" as="geometry" />
        </mxCell>
        <mxCell id="MY5WHlQzB3We_lp6xytC-1" value="User" style="shape=umlLifeline;perimeter=lifelinePerimeter;whiteSpace=wrap;html=1;container=1;collapsible=0;recursiveResize=0;outlineConnect=0;fillColor=#d5e8d4;strokeColor=#000000;" parent="TKF7dKA5Q2aCV54tY_aQ-0" vertex="1">
          <mxGeometry x="1310" y="130" width="100" height="300" as="geometry" />
        </mxCell>
        <mxCell id="MY5WHlQzB3We_lp6xytC-3" value="" style="html=1;points=[];perimeter=orthogonalPerimeter;" parent="TKF7dKA5Q2aCV54tY_aQ-0" vertex="1">
          <mxGeometry x="205" y="200" width="10" height="180" as="geometry" />
        </mxCell>
        <mxCell id="MY5WHlQzB3We_lp6xytC-5" value="" style="endArrow=open;endFill=1;endSize=12;html=1;rounded=0;exitX=1.04;exitY=0.498;exitDx=0;exitDy=0;exitPerimeter=0;entryX=0.011;entryY=0.397;entryDx=0;entryDy=0;entryPerimeter=0;" parent="TKF7dKA5Q2aCV54tY_aQ-0" source="MY5WHlQzB3We_lp6xytC-3" target="MY5WHlQzB3We_lp6xytC-8" edge="1">
          <mxGeometry width="160" relative="1" as="geometry">
            <mxPoint x="210" y="269.71" as="sourcePoint" />
            <mxPoint x="320" y="270" as="targetPoint" />
          </mxGeometry>
        </mxCell>
        <mxCell id="MY5WHlQzB3We_lp6xytC-6" value="safe" style="edgeLabel;html=1;align=center;verticalAlign=middle;resizable=0;points=[];" parent="MY5WHlQzB3We_lp6xytC-5" vertex="1" connectable="0">
          <mxGeometry x="-0.2381" relative="1" as="geometry">
            <mxPoint x="12" y="-10" as="offset" />
          </mxGeometry>
        </mxCell>
        <mxCell id="MY5WHlQzB3We_lp6xytC-7" value="Bot" style="shape=umlLifeline;perimeter=lifelinePerimeter;whiteSpace=wrap;html=1;container=1;collapsible=0;recursiveResize=0;outlineConnect=0;" parent="TKF7dKA5Q2aCV54tY_aQ-0" vertex="1">
          <mxGeometry x="310" y="110" width="100" height="300" as="geometry" />
        </mxCell>
        <mxCell id="MY5WHlQzB3We_lp6xytC-8" value="" style="html=1;points=[];perimeter=orthogonalPerimeter;" parent="MY5WHlQzB3We_lp6xytC-7" vertex="1">
          <mxGeometry x="45" y="140" width="10" height="100" as="geometry" />
        </mxCell>
        <mxCell id="MY5WHlQzB3We_lp6xytC-9" value="" style="html=1;points=[];perimeter=orthogonalPerimeter;" parent="TKF7dKA5Q2aCV54tY_aQ-0" vertex="1">
          <mxGeometry x="205" y="200" width="10" height="180" as="geometry" />
        </mxCell>
        <mxCell id="MY5WHlQzB3We_lp6xytC-11" value="Bot" style="shape=umlLifeline;perimeter=lifelinePerimeter;whiteSpace=wrap;html=1;container=1;collapsible=0;recursiveResize=0;outlineConnect=0;" parent="TKF7dKA5Q2aCV54tY_aQ-0" vertex="1">
          <mxGeometry x="310" y="110" width="100" height="300" as="geometry" />
        </mxCell>
        <mxCell id="MY5WHlQzB3We_lp6xytC-12" value="" style="html=1;points=[];perimeter=orthogonalPerimeter;" parent="MY5WHlQzB3We_lp6xytC-11" vertex="1">
          <mxGeometry x="45" y="140" width="10" height="100" as="geometry" />
        </mxCell>
        <mxCell id="MY5WHlQzB3We_lp6xytC-13" value="safe true" style="html=1;verticalAlign=bottom;endArrow=open;dashed=1;endSize=8;rounded=0;exitX=-0.031;exitY=0.806;exitDx=0;exitDy=0;exitPerimeter=0;entryX=0.961;entryY=0.723;entryDx=0;entryDy=0;entryPerimeter=0;" parent="TKF7dKA5Q2aCV54tY_aQ-0" edge="1">
          <mxGeometry relative="1" as="geometry">
            <mxPoint x="354.68999999999994" y="330.6" as="sourcePoint" />
            <mxPoint x="214.61" y="330.14" as="targetPoint" />
          </mxGeometry>
        </mxCell>
        <mxCell id="MY5WHlQzB3We_lp6xytC-14" value="" style="html=1;points=[];perimeter=orthogonalPerimeter;" parent="TKF7dKA5Q2aCV54tY_aQ-0" vertex="1">
          <mxGeometry x="205" y="200" width="10" height="180" as="geometry" />
        </mxCell>
        <mxCell id="MY5WHlQzB3We_lp6xytC-15" value="Create bot" style="html=1;verticalAlign=bottom;endArrow=open;endSize=8;rounded=0;entryX=0.963;entryY=-0.001;entryDx=0;entryDy=0;entryPerimeter=0;exitX=0.034;exitY=0.559;exitDx=0;exitDy=0;exitPerimeter=0;" parent="TKF7dKA5Q2aCV54tY_aQ-0" source="dHt9-2o09GKfG8fnE9cP-9" target="MY5WHlQzB3We_lp6xytC-17" edge="1">
          <mxGeometry relative="1" as="geometry">
            <mxPoint x="534.5699999999999" y="269.41999999999996" as="sourcePoint" />
            <mxPoint x="364.9799999999999" y="269.68000000000006" as="targetPoint" />
          </mxGeometry>
        </mxCell>
        <mxCell id="MY5WHlQzB3We_lp6xytC-16" value="Bot" style="shape=umlLifeline;perimeter=lifelinePerimeter;whiteSpace=wrap;html=1;container=1;collapsible=0;recursiveResize=0;outlineConnect=0;" parent="TKF7dKA5Q2aCV54tY_aQ-0" vertex="1">
          <mxGeometry x="310" y="110" width="100" height="300" as="geometry" />
        </mxCell>
        <mxCell id="MY5WHlQzB3We_lp6xytC-17" value="" style="html=1;points=[];perimeter=orthogonalPerimeter;" parent="MY5WHlQzB3We_lp6xytC-16" vertex="1">
          <mxGeometry x="45" y="140" width="10" height="100" as="geometry" />
        </mxCell>
        <mxCell id="MY5WHlQzB3We_lp6xytC-18" value="safe true" style="html=1;verticalAlign=bottom;endArrow=open;dashed=1;endSize=8;rounded=0;exitX=-0.031;exitY=0.806;exitDx=0;exitDy=0;exitPerimeter=0;entryX=0.961;entryY=0.723;entryDx=0;entryDy=0;entryPerimeter=0;" parent="TKF7dKA5Q2aCV54tY_aQ-0" edge="1">
          <mxGeometry relative="1" as="geometry">
            <mxPoint x="354.68999999999994" y="330.6" as="sourcePoint" />
            <mxPoint x="214.61" y="330.14" as="targetPoint" />
          </mxGeometry>
        </mxCell>
        <mxCell id="MY5WHlQzB3We_lp6xytC-19" value="" style="endArrow=open;endFill=1;endSize=12;html=1;rounded=0;exitX=1.04;exitY=0.498;exitDx=0;exitDy=0;exitPerimeter=0;entryX=0.011;entryY=0.397;entryDx=0;entryDy=0;entryPerimeter=0;" parent="TKF7dKA5Q2aCV54tY_aQ-0" edge="1">
          <mxGeometry width="160" relative="1" as="geometry">
            <mxPoint x="215.39999999999998" y="289.64" as="sourcePoint" />
            <mxPoint x="355.11" y="289.70000000000005" as="targetPoint" />
          </mxGeometry>
        </mxCell>
        <mxCell id="MY5WHlQzB3We_lp6xytC-20" value="safe" style="edgeLabel;html=1;align=center;verticalAlign=middle;resizable=0;points=[];" parent="MY5WHlQzB3We_lp6xytC-19" vertex="1" connectable="0">
          <mxGeometry x="-0.2381" relative="1" as="geometry">
            <mxPoint x="12" y="-10" as="offset" />
          </mxGeometry>
        </mxCell>
        <mxCell id="MY5WHlQzB3We_lp6xytC-24" value="Bot" style="shape=umlLifeline;perimeter=lifelinePerimeter;whiteSpace=wrap;html=1;container=1;collapsible=0;recursiveResize=0;outlineConnect=0;strokeColor=#000000;" parent="TKF7dKA5Q2aCV54tY_aQ-0" vertex="1">
          <mxGeometry x="1610" y="130" width="100" height="300" as="geometry" />
        </mxCell>
        <mxCell id="MY5WHlQzB3We_lp6xytC-27" value="" style="html=1;points=[];perimeter=orthogonalPerimeter;" parent="MY5WHlQzB3We_lp6xytC-24" vertex="1">
          <mxGeometry x="45" y="154" width="10" height="86" as="geometry" />
        </mxCell>
        <mxCell id="MY5WHlQzB3We_lp6xytC-25" value="Map" style="shape=umlLifeline;perimeter=lifelinePerimeter;whiteSpace=wrap;html=1;container=1;collapsible=0;recursiveResize=0;outlineConnect=0;" parent="TKF7dKA5Q2aCV54tY_aQ-0" vertex="1">
          <mxGeometry x="1461.11" y="130" width="100" height="300" as="geometry" />
        </mxCell>
        <mxCell id="MY5WHlQzB3We_lp6xytC-26" value="" style="html=1;points=[];perimeter=orthogonalPerimeter;" parent="MY5WHlQzB3We_lp6xytC-25" vertex="1">
          <mxGeometry x="44.99" y="90" width="10" height="150" as="geometry" />
        </mxCell>
        <mxCell id="MY5WHlQzB3We_lp6xytC-2" value="" style="html=1;points=[];perimeter=orthogonalPerimeter;strokeColor=#000000;" parent="TKF7dKA5Q2aCV54tY_aQ-0" vertex="1">
          <mxGeometry x="1355" y="220" width="10" height="200" as="geometry" />
        </mxCell>
        <mxCell id="MY5WHlQzB3We_lp6xytC-28" value="" style="endArrow=open;endFill=1;endSize=12;html=1;rounded=0;exitX=1.026;exitY=0.05;exitDx=0;exitDy=0;exitPerimeter=0;entryX=-0.044;entryY=0.066;entryDx=0;entryDy=0;entryPerimeter=0;" parent="TKF7dKA5Q2aCV54tY_aQ-0" source="MY5WHlQzB3We_lp6xytC-2" target="MY5WHlQzB3We_lp6xytC-26" edge="1">
          <mxGeometry width="160" relative="1" as="geometry">
            <mxPoint x="1401.1100000000001" y="230" as="sourcePoint" />
            <mxPoint x="1561.1100000000001" y="230" as="targetPoint" />
          </mxGeometry>
        </mxCell>
        <mxCell id="MY5WHlQzB3We_lp6xytC-29" value="Create map" style="edgeLabel;html=1;align=center;verticalAlign=middle;resizable=0;points=[];" parent="MY5WHlQzB3We_lp6xytC-28" vertex="1" connectable="0">
          <mxGeometry x="0.2071" relative="1" as="geometry">
            <mxPoint x="-7" y="-10" as="offset" />
          </mxGeometry>
        </mxCell>
        <mxCell id="MY5WHlQzB3We_lp6xytC-30" value="createBot(): Bot" style="html=1;verticalAlign=bottom;endArrow=open;endSize=12;rounded=0;exitX=1.073;exitY=0.425;exitDx=0;exitDy=0;exitPerimeter=0;entryX=0.074;entryY=0;entryDx=0;entryDy=0;entryPerimeter=0;" parent="TKF7dKA5Q2aCV54tY_aQ-0" source="MY5WHlQzB3We_lp6xytC-26" target="MY5WHlQzB3We_lp6xytC-27" edge="1">
          <mxGeometry relative="1" as="geometry">
            <mxPoint x="1450" y="270" as="sourcePoint" />
            <mxPoint x="1600" y="270" as="targetPoint" />
          </mxGeometry>
        </mxCell>
        <mxCell id="MY5WHlQzB3We_lp6xytC-31" value="Perceptron" style="shape=umlLifeline;perimeter=lifelinePerimeter;whiteSpace=wrap;html=1;container=1;collapsible=0;recursiveResize=0;outlineConnect=0;strokeColor=#000000;" parent="TKF7dKA5Q2aCV54tY_aQ-0" vertex="1">
          <mxGeometry x="1760" y="130" width="100" height="300" as="geometry" />
        </mxCell>
        <mxCell id="MY5WHlQzB3We_lp6xytC-32" value="" style="html=1;points=[];perimeter=orthogonalPerimeter;strokeColor=#000000;" parent="MY5WHlQzB3We_lp6xytC-31" vertex="1">
          <mxGeometry x="45" y="170" width="10" height="70" as="geometry" />
        </mxCell>
        <mxCell id="MY5WHlQzB3We_lp6xytC-33" value="" style="endArrow=open;endFill=1;endSize=12;html=1;rounded=0;entryX=0.062;entryY=0.001;entryDx=0;entryDy=0;entryPerimeter=0;exitX=1.084;exitY=0.204;exitDx=0;exitDy=0;exitPerimeter=0;" parent="TKF7dKA5Q2aCV54tY_aQ-0" source="MY5WHlQzB3We_lp6xytC-27" target="MY5WHlQzB3We_lp6xytC-32" edge="1">
          <mxGeometry width="160" relative="1" as="geometry">
            <mxPoint x="1620" y="300" as="sourcePoint" />
            <mxPoint x="1655.8400000000001" y="299.90999999999997" as="targetPoint" />
          </mxGeometry>
        </mxCell>
        <mxCell id="MY5WHlQzB3We_lp6xytC-35" value="Create perceptron" style="edgeLabel;html=1;align=center;verticalAlign=middle;resizable=0;points=[];" parent="MY5WHlQzB3We_lp6xytC-33" vertex="1" connectable="0">
          <mxGeometry x="-0.1285" relative="1" as="geometry">
            <mxPoint x="-1" y="-10" as="offset" />
          </mxGeometry>
        </mxCell>
        <mxCell id="MY5WHlQzB3We_lp6xytC-39" value="" style="endArrow=open;endFill=1;endSize=12;html=1;rounded=0;entryX=0.013;entryY=0.428;entryDx=0;entryDy=0;entryPerimeter=0;exitX=1.011;exitY=0.534;exitDx=0;exitDy=0;exitPerimeter=0;" parent="TKF7dKA5Q2aCV54tY_aQ-0" source="MY5WHlQzB3We_lp6xytC-27" target="MY5WHlQzB3We_lp6xytC-32" edge="1">
          <mxGeometry width="160" relative="1" as="geometry">
            <mxPoint x="1510" y="300" as="sourcePoint" />
            <mxPoint x="1670" y="300" as="targetPoint" />
          </mxGeometry>
        </mxCell>
        <mxCell id="MY5WHlQzB3We_lp6xytC-40" value="feedForward(...): layers[]&amp;nbsp;" style="edgeLabel;html=1;align=center;verticalAlign=middle;resizable=0;points=[];" parent="MY5WHlQzB3We_lp6xytC-39" vertex="1" connectable="0">
          <mxGeometry x="0.1846" y="-1" relative="1" as="geometry">
            <mxPoint x="-12" y="-12" as="offset" />
          </mxGeometry>
        </mxCell>
        <mxCell id="MY5WHlQzB3We_lp6xytC-41" value="Бот создан" style="html=1;verticalAlign=bottom;endArrow=open;dashed=1;endSize=8;rounded=0;exitX=-0.112;exitY=0.732;exitDx=0;exitDy=0;exitPerimeter=0;entryX=0.96;entryY=0.549;entryDx=0;entryDy=0;entryPerimeter=0;" parent="TKF7dKA5Q2aCV54tY_aQ-0" edge="1">
          <mxGeometry relative="1" as="geometry">
            <mxPoint x="1504.98" y="316.79999999999995" as="sourcePoint" />
            <mxPoint x="1364.6" y="316.79999999999995" as="targetPoint" />
          </mxGeometry>
        </mxCell>
        <mxCell id="MY5WHlQzB3We_lp6xytC-42" value="" style="endArrow=open;endFill=1;endSize=12;html=1;rounded=0;exitX=1.041;exitY=0.2;exitDx=0;exitDy=0;exitPerimeter=0;entryX=-0.041;entryY=0.265;entryDx=0;entryDy=0;entryPerimeter=0;" parent="TKF7dKA5Q2aCV54tY_aQ-0" edge="1">
          <mxGeometry width="160" relative="1" as="geometry">
            <mxPoint x="1365.4099999999999" y="274" as="sourcePoint" />
            <mxPoint x="1505.69" y="273.75" as="targetPoint" />
          </mxGeometry>
        </mxCell>
        <mxCell id="MY5WHlQzB3We_lp6xytC-43" value="Create bot" style="edgeLabel;html=1;align=center;verticalAlign=middle;resizable=0;points=[];" parent="MY5WHlQzB3We_lp6xytC-42" vertex="1" connectable="0">
          <mxGeometry x="0.2071" relative="1" as="geometry">
            <mxPoint x="-7" y="-10" as="offset" />
          </mxGeometry>
        </mxCell>
        <mxCell id="MY5WHlQzB3We_lp6xytC-44" value="Карта создана" style="html=1;verticalAlign=bottom;endArrow=open;dashed=1;endSize=8;rounded=0;exitX=-0.052;exitY=0.201;exitDx=0;exitDy=0;exitPerimeter=0;entryX=1.029;entryY=0.151;entryDx=0;entryDy=0;entryPerimeter=0;" parent="TKF7dKA5Q2aCV54tY_aQ-0" source="MY5WHlQzB3We_lp6xytC-26" target="MY5WHlQzB3We_lp6xytC-2" edge="1">
          <mxGeometry relative="1" as="geometry">
            <mxPoint x="1505.38" y="250.00000000000006" as="sourcePoint" />
            <mxPoint x="1365.0000000000002" y="250.00000000000006" as="targetPoint" />
          </mxGeometry>
        </mxCell>
        <mxCell id="jLgdzQRf87adF8g03KyK-0" value="Autentification" style="shape=umlFrame;whiteSpace=wrap;html=1;width=120;height=50;movable=0;resizable=0;rotatable=0;deletable=0;editable=0;connectable=0;" vertex="1" parent="TKF7dKA5Q2aCV54tY_aQ-0">
          <mxGeometry x="80" y="720" width="980" height="690" as="geometry" />
        </mxCell>
        <mxCell id="jLgdzQRf87adF8g03KyK-2" value="Start page" style="shape=umlLifeline;perimeter=lifelinePerimeter;whiteSpace=wrap;html=1;container=1;collapsible=0;recursiveResize=0;outlineConnect=0;strokeColor=#000000;" vertex="1" parent="TKF7dKA5Q2aCV54tY_aQ-0">
          <mxGeometry x="330" y="810" width="100" height="370" as="geometry" />
        </mxCell>
        <mxCell id="jLgdzQRf87adF8g03KyK-6" value="" style="html=1;points=[];perimeter=orthogonalPerimeter;strokeColor=#000000;" vertex="1" parent="jLgdzQRf87adF8g03KyK-2">
          <mxGeometry x="45" y="80" width="10" height="60" as="geometry" />
        </mxCell>
        <mxCell id="jLgdzQRf87adF8g03KyK-3" value="Autentification" style="shape=umlLifeline;perimeter=lifelinePerimeter;whiteSpace=wrap;html=1;container=1;collapsible=0;recursiveResize=0;outlineConnect=0;strokeColor=#000000;" vertex="1" parent="TKF7dKA5Q2aCV54tY_aQ-0">
          <mxGeometry x="480" y="810" width="100" height="370" as="geometry" />
        </mxCell>
        <mxCell id="jLgdzQRf87adF8g03KyK-10" value="" style="html=1;points=[];perimeter=orthogonalPerimeter;strokeColor=#000000;" vertex="1" parent="jLgdzQRf87adF8g03KyK-3">
          <mxGeometry x="45" y="100" width="10" height="180" as="geometry" />
        </mxCell>
        <mxCell id="jLgdzQRf87adF8g03KyK-4" value="Database" style="shape=umlLifeline;perimeter=lifelinePerimeter;whiteSpace=wrap;html=1;container=1;collapsible=0;recursiveResize=0;outlineConnect=0;strokeColor=#000000;" vertex="1" parent="TKF7dKA5Q2aCV54tY_aQ-0">
          <mxGeometry x="630" y="810" width="100" height="370" as="geometry" />
        </mxCell>
        <mxCell id="jLgdzQRf87adF8g03KyK-16" value="" style="html=1;points=[];perimeter=orthogonalPerimeter;strokeColor=#000000;" vertex="1" parent="jLgdzQRf87adF8g03KyK-4">
          <mxGeometry x="45" y="220" width="10" height="100" as="geometry" />
        </mxCell>
        <mxCell id="jLgdzQRf87adF8g03KyK-11" value="" style="endArrow=open;endFill=1;endSize=12;html=1;rounded=0;entryX=0;entryY=-0.002;entryDx=0;entryDy=0;entryPerimeter=0;exitX=0.996;exitY=0.329;exitDx=0;exitDy=0;exitPerimeter=0;" edge="1" parent="TKF7dKA5Q2aCV54tY_aQ-0" source="jLgdzQRf87adF8g03KyK-6" target="jLgdzQRf87adF8g03KyK-10">
          <mxGeometry width="160" relative="1" as="geometry">
            <mxPoint x="385" y="900" as="sourcePoint" />
            <mxPoint x="545" y="900" as="targetPoint" />
          </mxGeometry>
        </mxCell>
        <mxCell id="jLgdzQRf87adF8g03KyK-12" value="Loading the form" style="edgeLabel;html=1;align=center;verticalAlign=middle;resizable=0;points=[];" vertex="1" connectable="0" parent="jLgdzQRf87adF8g03KyK-11">
          <mxGeometry x="-0.0828" y="1" relative="1" as="geometry">
            <mxPoint y="-9" as="offset" />
          </mxGeometry>
        </mxCell>
        <mxCell id="jLgdzQRf87adF8g03KyK-17" value="" style="endArrow=open;endFill=1;endSize=12;html=1;rounded=0;entryX=0.067;entryY=-0.001;entryDx=0;entryDy=0;entryPerimeter=0;exitX=1;exitY=0.626;exitDx=0;exitDy=0;exitPerimeter=0;" edge="1" parent="TKF7dKA5Q2aCV54tY_aQ-0" target="jLgdzQRf87adF8g03KyK-16">
          <mxGeometry width="160" relative="1" as="geometry">
            <mxPoint x="535" y="1029.16" as="sourcePoint" />
            <mxPoint x="675.02" y="1028.84" as="targetPoint" />
          </mxGeometry>
        </mxCell>
        <mxCell id="jLgdzQRf87adF8g03KyK-19" value="Data verification" style="edgeLabel;html=1;align=center;verticalAlign=middle;resizable=0;points=[];" vertex="1" connectable="0" parent="jLgdzQRf87adF8g03KyK-17">
          <mxGeometry x="-0.2175" y="1" relative="1" as="geometry">
            <mxPoint x="10" y="-8" as="offset" />
          </mxGeometry>
        </mxCell>
        <mxCell id="jLgdzQRf87adF8g03KyK-20" value="Confirmation of success" style="html=1;verticalAlign=bottom;endArrow=open;dashed=1;endSize=8;rounded=0;exitX=-0.044;exitY=0.404;exitDx=0;exitDy=0;exitPerimeter=0;entryX=0.958;entryY=0.881;entryDx=0;entryDy=0;entryPerimeter=0;" edge="1" parent="TKF7dKA5Q2aCV54tY_aQ-0" source="jLgdzQRf87adF8g03KyK-16" target="jLgdzQRf87adF8g03KyK-10">
          <mxGeometry relative="1" as="geometry">
            <mxPoint x="615" y="1060" as="sourcePoint" />
            <mxPoint x="535" y="1060" as="targetPoint" />
          </mxGeometry>
        </mxCell>
        <mxCell id="jLgdzQRf87adF8g03KyK-21" value="" style="html=1;points=[];perimeter=orthogonalPerimeter;strokeColor=#000000;" vertex="1" parent="TKF7dKA5Q2aCV54tY_aQ-0">
          <mxGeometry x="375" y="1090" width="10" height="70" as="geometry" />
        </mxCell>
        <mxCell id="jLgdzQRf87adF8g03KyK-22" value="" style="endArrow=open;endFill=1;endSize=12;html=1;rounded=0;exitX=0.5;exitY=1;exitDx=0;exitDy=0;exitPerimeter=0;entryX=0.966;entryY=0;entryDx=0;entryDy=0;entryPerimeter=0;" edge="1" parent="TKF7dKA5Q2aCV54tY_aQ-0" source="jLgdzQRf87adF8g03KyK-10" target="jLgdzQRf87adF8g03KyK-21">
          <mxGeometry width="160" relative="1" as="geometry">
            <mxPoint x="350" y="1110" as="sourcePoint" />
            <mxPoint x="390" y="1090" as="targetPoint" />
          </mxGeometry>
        </mxCell>
        <mxCell id="jLgdzQRf87adF8g03KyK-24" value="Display the page with data" style="edgeLabel;html=1;align=center;verticalAlign=middle;resizable=0;points=[];" vertex="1" connectable="0" parent="jLgdzQRf87adF8g03KyK-22">
          <mxGeometry x="0.119" relative="1" as="geometry">
            <mxPoint x="10" y="-9" as="offset" />
          </mxGeometry>
        </mxCell>
        <mxCell id="jLgdzQRf87adF8g03KyK-1" value="Guest" style="shape=umlLifeline;perimeter=lifelinePerimeter;whiteSpace=wrap;html=1;container=1;collapsible=0;recursiveResize=0;outlineConnect=0;fillColor=#d5e8d4;strokeColor=#000000;" vertex="1" parent="WIyWlLk6GJQsqaUBKTNV-1">
          <mxGeometry x="210" y="830" width="100" height="370" as="geometry" />
        </mxCell>
        <mxCell id="jLgdzQRf87adF8g03KyK-5" value="" style="html=1;points=[];perimeter=orthogonalPerimeter;strokeColor=#000000;" vertex="1" parent="jLgdzQRf87adF8g03KyK-1">
          <mxGeometry x="45" y="80" width="10" height="270" as="geometry" />
        </mxCell>
        <mxCell id="jLgdzQRf87adF8g03KyK-7" value="" style="endArrow=open;endFill=1;endSize=12;html=1;rounded=0;exitX=0.991;exitY=0;exitDx=0;exitDy=0;exitPerimeter=0;entryX=-0.001;entryY=-0.004;entryDx=0;entryDy=0;entryPerimeter=0;" edge="1" parent="WIyWlLk6GJQsqaUBKTNV-1" source="jLgdzQRf87adF8g03KyK-5" target="jLgdzQRf87adF8g03KyK-6">
          <mxGeometry width="160" relative="1" as="geometry">
            <mxPoint x="264.90999999999997" y="910.8000000000002" as="sourcePoint" />
            <mxPoint x="404.58000000000004" y="910.46" as="targetPoint" />
          </mxGeometry>
        </mxCell>
        <mxCell id="jLgdzQRf87adF8g03KyK-8" value="Log in to the system" style="edgeLabel;html=1;align=center;verticalAlign=middle;resizable=0;points=[];" vertex="1" connectable="0" parent="jLgdzQRf87adF8g03KyK-7">
          <mxGeometry x="-0.2698" y="1" relative="1" as="geometry">
            <mxPoint x="14" y="-9" as="offset" />
          </mxGeometry>
        </mxCell>
        <mxCell id="jLgdzQRf87adF8g03KyK-13" value="" style="html=1;verticalAlign=bottom;endArrow=open;dashed=1;endSize=8;rounded=0;entryX=0.986;entryY=0.432;entryDx=0;entryDy=0;entryPerimeter=0;exitX=-0.011;exitY=0.554;exitDx=0;exitDy=0;exitPerimeter=0;" edge="1" parent="WIyWlLk6GJQsqaUBKTNV-1">
          <mxGeometry relative="1" as="geometry">
            <mxPoint x="554.8900000000001" y="993.48" as="sourcePoint" />
            <mxPoint x="264.8599999999999" y="993.4000000000001" as="targetPoint" />
          </mxGeometry>
        </mxCell>
        <mxCell id="jLgdzQRf87adF8g03KyK-14" value="" style="endArrow=open;endFill=1;endSize=12;html=1;rounded=0;exitX=0.973;exitY=0.649;exitDx=0;exitDy=0;exitPerimeter=0;entryX=-0.04;entryY=0.915;entryDx=0;entryDy=0;entryPerimeter=0;" edge="1" parent="WIyWlLk6GJQsqaUBKTNV-1">
          <mxGeometry width="160" relative="1" as="geometry">
            <mxPoint x="264.7299999999999" y="1025.8" as="sourcePoint" />
            <mxPoint x="554.5999999999999" y="1025.8" as="targetPoint" />
          </mxGeometry>
        </mxCell>
        <mxCell id="jLgdzQRf87adF8g03KyK-15" value="Login and password input" style="edgeLabel;html=1;align=center;verticalAlign=middle;resizable=0;points=[];" vertex="1" connectable="0" parent="jLgdzQRf87adF8g03KyK-14">
          <mxGeometry x="-0.1839" y="1" relative="1" as="geometry">
            <mxPoint y="-7" as="offset" />
          </mxGeometry>
        </mxCell>
        <mxCell id="jLgdzQRf87adF8g03KyK-25" value="" style="endArrow=open;endFill=1;endSize=12;html=1;rounded=0;entryX=1.023;entryY=0.838;entryDx=0;entryDy=0;entryPerimeter=0;exitX=-0.065;exitY=0.379;exitDx=0;exitDy=0;exitPerimeter=0;" edge="1" parent="WIyWlLk6GJQsqaUBKTNV-1" source="jLgdzQRf87adF8g03KyK-21" target="jLgdzQRf87adF8g03KyK-5">
          <mxGeometry width="160" relative="1" as="geometry">
            <mxPoint x="400" y="1140" as="sourcePoint" />
            <mxPoint x="170" y="1080" as="targetPoint" />
          </mxGeometry>
        </mxCell>
        <mxCell id="jLgdzQRf87adF8g03KyK-26" value="Log out of the system" style="edgeLabel;html=1;align=center;verticalAlign=middle;resizable=0;points=[];" vertex="1" connectable="0" parent="jLgdzQRf87adF8g03KyK-25">
          <mxGeometry x="-0.1742" y="2" relative="1" as="geometry">
            <mxPoint x="-6" y="-11" as="offset" />
          </mxGeometry>
        </mxCell>
      </root>
    </mxGraphModel>
  </diagram>
</mxfile>
